<?xml version="1.0" encoding="UTF-8" standalone="no"?>
<!DOCTYPE svg PUBLIC "-//W3C//DTD SVG 1.1//EN" "http://www.w3.org/Graphics/SVG/1.1/DTD/svg11.dtd">
<svg width="100%" height="100%" viewBox="0 0 8334 1993" version="1.1" xmlns="http://www.w3.org/2000/svg" xmlns:xlink="http://www.w3.org/1999/xlink" xml:space="preserve" xmlns:serif="http://www.serif.com/" style="fill-rule:evenodd;clip-rule:evenodd;stroke-linejoin:round;stroke-miterlimit:2;">
    <g transform="matrix(1,0,0,1,0,-6487.124361)">
        <g id="Page-8" serif:id="Page 8" transform="matrix(4.166667,0,0,1.992831,0,6487.124361)">
            <rect x="0" y="0" width="2000" height="1000" style="fill:none;"/>
            <clipPath id="_clip1">
                <rect x="0" y="0" width="2000" height="1000"/>
            </clipPath>
            <g clip-path="url(#_clip1)">
                <g id="Layer-1" serif:id="Layer 1" transform="matrix(1,0,0,2.090827,0,-545.517465)">
                    <g transform="matrix(2.390567,0,0,2.390567,239.056632,367.203547)">
                        <path d="M0,111.132L33.329,88.899L0,-44.434L-33.361,88.899L0,111.132ZM100,133.343L33.333,155.566L0,133.349L-33.333,155.566L-100,133.343L-33.333,-44.434L0,88.899L33.333,-44.434L100,133.343Z"/>
                    </g>
                    <g transform="matrix(2.390567,0,0,2.390567,696.795084,261.053266)">
                        <path d="M0,81.198L0,25.737L-37.638,25.737L-37.638,0L69.296,0L69.296,25.737L31.657,25.737L31.657,81.198L0,81.198Z" style="fill-rule:nonzero;"/>
                    </g>
                    <g transform="matrix(2.390567,0,0,2.390567,963.405513,397.827194)">
                        <path d="M0,-33.531L0,-19.696L38.605,-19.696C40.538,-19.696 42.17,-20.361 43.499,-21.69C44.888,-23.079 45.553,-24.71 45.553,-26.583C45.553,-30.45 42.472,-33.531 38.605,-33.531L0,-33.531ZM46.58,-57.274C63.315,-57.455 77.512,-43.379 77.271,-26.583C77.271,-20.481 75.639,-14.923 72.377,-9.969C69.175,-5.076 64.886,-1.33 59.569,1.147L77.271,23.924L43.559,23.924L28.274,4.107L0,4.107L0,23.924L-31.657,23.924L-31.657,-57.274L46.58,-57.274Z" style="fill-rule:nonzero;"/>
                    </g>
                    <g transform="matrix(2.390567,0,0,2.390567,1276.376457,341.645273)">
                        <path d="M0,13.774L22.293,13.774L11.177,-10.211L0,13.774ZM-7.673,-33.712L29.966,-33.712L73.525,47.486L37.88,47.486L31.476,33.59L-9.183,33.59L-15.587,47.486L-51.232,47.486L-7.673,-33.712Z" style="fill-rule:nonzero;"/>
                    </g>
                    <g transform="matrix(2.390567,0,0,2.390567,1548.619542,385.549957)">
                        <path d="M0,-22.958L23.803,-52.078L61.382,-52.078L15.829,1.389L15.829,29.12L-15.829,29.12L-15.829,1.389L-61.382,-52.078L-23.743,-52.078L0,-22.958Z" style="fill-rule:nonzero;"/>
                    </g>
                    <g transform="matrix(2.390567,0,0,2.390567,1878.632842,307.12739)">
                        <path d="M0,42.592C2.719,42.592 4.954,39.873 4.954,37.155C4.954,34.436 2.719,31.717 0,31.717L-42.593,31.717L-42.593,42.592L0,42.592ZM-42.593,-0.001L-42.593,10.935L-5.921,10.935C-3.202,10.935 -0.967,8.155 -0.967,5.437C-0.967,2.718 -3.202,-0.001 -5.921,-0.001L-42.593,-0.001ZM34.678,40.115C34.859,54.312 22.897,61.925 8.942,61.925L-74.25,61.925L-74.25,-19.273L2.96,-19.273C17.037,-19.333 28.939,-11.661 28.758,2.476C28.758,10.27 25.133,16.251 19.333,19.936C28.516,22.897 34.678,29.905 34.678,40.115" style="fill-rule:nonzero;"/>
                    </g>
                    <g transform="matrix(2.390567,0,0,2.390567,733.883782,662.888297)">
                        <path d="M0,-17.506C21.595,-16.412 51.944,-14.915 51.886,4.492C51.886,26.606 26.548,31.846 -0.633,31.846C-27.757,31.789 -50.274,28.506 -53.153,4.492L-21.538,4.492C-18.082,10.481 -10.078,12.036 -0.633,12.036C8.753,12.036 20.271,10.481 20.271,4.492C20.271,1.095 10.884,0.576 -1.267,0.001C-22.862,-1.094 -53.211,-2.591 -53.153,-21.94C-53.153,-44.054 -27.815,-49.352 -0.633,-49.352C26.49,-49.179 49.007,-46.127 51.886,-21.94L20.271,-21.94C16.815,-28.044 8.811,-29.484 -0.633,-29.484C-10.02,-29.484 -21.538,-28.102 -21.538,-21.94C-21.538,-18.543 -12.151,-18.082 0,-17.506" style="fill-rule:nonzero;"/>
                    </g>
                    <g transform="matrix(2.390567,0,0,2.390567,877.194239,734.750668)">
                        <path d="M0,-77.397L90.585,-77.397L90.585,-57.587L30.176,-57.587L30.176,-47.682L90.585,-47.682L90.585,-29.772L30.176,-29.772L30.176,-19.867L90.585,-19.867L90.585,0L0,0L0,-77.397Z" style="fill-rule:nonzero;"/>
                    </g>
                    <g transform="matrix(2.390567,0,0,2.390567,1204.151676,680.095602)">
                        <path d="M0,-31.96L0,-18.773L36.798,-18.773C38.641,-18.773 40.196,-19.406 41.463,-20.673C42.787,-21.997 43.421,-23.552 43.421,-25.337C43.421,-29.023 40.484,-31.96 36.798,-31.96L0,-31.96ZM44.4,-54.592C60.351,-54.765 73.884,-41.347 73.654,-25.337C73.654,-19.521 72.099,-14.223 68.99,-9.501C65.937,-4.836 61.849,-1.266 56.781,1.095L73.654,22.805L41.52,22.805L26.951,3.917L0,3.917L0,22.805L-30.176,22.805L-30.176,-54.592L44.4,-54.592Z" style="fill-rule:nonzero;"/>
                    </g>
                    <g transform="matrix(-2.390567,0,0,2.390567,4267.762403,-411.353843)">
                        <rect x="1168.382" y="401.916" width="30.176" height="77.397"/>
                    </g>
                    <g transform="matrix(2.390567,0,0,2.390567,1512.936976,734.750668)">
                        <path d="M0,-77.397L90.585,-77.397L90.585,-57.587L30.176,-57.587L30.176,-47.682L90.585,-47.682L90.585,-29.772L30.176,-29.772L30.176,-19.867L90.585,-19.867L90.585,0L0,0L0,-77.397Z" style="fill-rule:nonzero;"/>
                    </g>
                    <g transform="matrix(2.390567,0,0,2.390567,1875.962817,662.888297)">
                        <path d="M0,-17.506C21.595,-16.412 51.944,-14.915 51.886,4.492C51.886,26.606 26.548,31.846 -0.633,31.846C-27.757,31.789 -50.274,28.506 -53.153,4.492L-21.538,4.492C-18.082,10.481 -10.078,12.036 -0.633,12.036C8.753,12.036 20.271,10.481 20.271,4.492C20.271,1.095 10.884,0.576 -1.267,0.001C-22.862,-1.094 -53.211,-2.591 -53.153,-21.94C-53.153,-44.054 -27.815,-49.352 -0.633,-49.352C26.49,-49.179 49.007,-46.127 51.886,-21.94L20.271,-21.94C16.816,-28.044 8.811,-29.484 -0.633,-29.484C-10.02,-29.484 -21.538,-28.102 -21.538,-21.94C-21.538,-18.543 -12.151,-18.082 0,-17.506" style="fill-rule:nonzero;"/>
                    </g>
                </g>
            </g>
        </g>
    </g>
</svg>
